<?xml version="1.0" standalone="no"?>
<!DOCTYPE svg PUBLIC "-//W3C//DTD SVG 20010904//EN"
 "http://www.w3.org/TR/2001/REC-SVG-20010904/DTD/svg10.dtd">
<svg version="1.0" xmlns="http://www.w3.org/2000/svg"
 width="4675.000000pt" height="4675.000000pt" viewBox="0 0 4675.000000 4675.000000"
 preserveAspectRatio="xMidYMid meet">

<g transform="translate(0.000000,4675.000000) scale(0.100000,-0.100000)"
fill="#000000" stroke="none">
<path d="M26793 35609 c-96 -18 -177 -80 -220 -167 l-28 -57 -3 -619 c-3 -681
-3 -680 58 -763 43 -59 107 -97 203 -122 1526 -401 2834 -1094 3997 -2119 192
-169 616 -591 776 -772 966 -1091 1634 -2287 2049 -3666 63 -208 88 -254 164
-304 25 -17 62 -35 83 -40 24 -7 264 -10 670 -8 l633 3 53 29 c142 79 190 217
142 406 -289 1138 -785 2270 -1440 3285 -595 923 -1365 1800 -2215 2520 -1332
1129 -2886 1926 -4561 2338 -238 59 -297 68 -361 56z"/>
<path d="M21228 30049 c-1955 -93 -3773 -902 -5152 -2293 -1202 -1213 -1973
-2788 -2185 -4467 -70 -550 -80 -1226 -27 -1752 l12 -118 -111 8 c-278 20
-710 6 -1015 -33 -1824 -232 -3420 -1451 -4136 -3160 -595 -1420 -527 -3063
183 -4424 250 -480 549 -886 938 -1276 425 -426 837 -724 1365 -988 552 -275
1079 -433 1735 -518 l170 -22 6855 -3 6855 -2 -83 80 c-586 561 -964 1260
-1096 2030 -42 244 -51 350 -51 629 1 378 39 656 135 993 111 388 312 804 548
1132 464 645 1150 1137 1903 1364 358 109 781 169 1115 159 l121 -3 49 99
c552 1121 1615 1938 2846 2186 272 55 427 71 743 77 322 6 500 -6 773 -52
1617 -273 2928 -1500 3312 -3100 31 -128 80 -402 80 -447 0 -24 6 -28 58 -42
31 -9 113 -36 182 -61 69 -24 131 -45 139 -47 16 -3 25 27 75 252 276 1238
182 2554 -266 3745 -705 1871 -2225 3338 -4113 3970 -1247 417 -2610 457
-3863 114 -79 -21 -147 -39 -152 -39 -5 0 -14 26 -20 58 -22 104 -119 444
-182 632 -505 1525 -1463 2846 -2768 3814 -1422 1055 -3189 1590 -4972 1505z"/>
</g>
</svg>
