<?xml version="1.0" standalone="no"?>
<!DOCTYPE svg PUBLIC "-//W3C//DTD SVG 20010904//EN"
 "http://www.w3.org/TR/2001/REC-SVG-20010904/DTD/svg10.dtd">
<svg version="1.0" xmlns="http://www.w3.org/2000/svg"
 width="4675.000000pt" height="4675.000000pt" viewBox="0 0 4675.000000 4675.000000"
 preserveAspectRatio="xMidYMid meet">

<g transform="translate(0.000000,4675.000000) scale(0.100000,-0.100000)"
fill="#000000" stroke="none">
<path d="M23110 35483 c-1171 -43 -2327 -347 -3450 -907 -320 -160 -505 -266
-765 -439 -1647 -1095 -2731 -2903 -2940 -4902 -8 -82 -18 -166 -21 -185 -4
-19 -9 -876 -13 -1905 l-6 -1870 -830 -6 c-809 -5 -832 -6 -927 -27 -284 -65
-514 -190 -712 -388 -197 -197 -322 -426 -388 -712 l-23 -97 -2 -5727 -3
-5728 10345 0 10345 0 -3 5728 -2 5727 -23 97 c-66 286 -191 516 -388 712
-196 197 -426 322 -712 388 l-97 23 -6658 2 -6658 3 4 1748 c4 1889 1 1789 57
2102 100 559 351 1108 716 1565 113 142 368 396 509 508 349 278 863 560 1350
740 1473 543 3009 303 4205 -657 69 -55 211 -186 316 -291 346 -345 590 -686
804 -1120 256 -521 387 -1027 422 -1627 l12 -208 1633 0 1634 0 -6 163 c-29
812 -145 1481 -379 2182 -132 393 -256 691 -435 1040 -889 1734 -2433 3068
-4266 3683 -848 285 -1760 418 -2645 385z m384 -14653 c252 -18 456 -73 681
-183 752 -368 1153 -1187 984 -2007 -57 -277 -198 -567 -384 -790 -110 -132
-296 -296 -416 -367 l-29 -17 0 -898 0 -898 -955 0 -955 0 0 898 0 897 -48 30
c-81 51 -234 179 -312 261 -248 260 -418 591 -480 935 -74 408 -4 831 204
1244 178 352 302 479 637 654 267 139 546 221 818 240 58 5 108 9 111 9 3 1
68 -3 144 -8z"/>
<path d="M13122 11588 c28 -102 97 -277 153 -387 278 -554 783 -979 1375
-1156 130 -39 311 -73 455 -85 93 -8 2478 -10 8355 -8 7895 3 8229 4 8330 21
496 86 889 282 1234 617 65 63 147 151 183 195 190 236 344 529 421 803 l20
72 -10273 0 -10273 0 20 -72z"/>
</g>
</svg>
